<svg id="logo_new" xmlns="http://www.w3.org/2000/svg" width="105.393" height="40" viewBox="0 0 105.393 40">
  <path id="Caminho_1" data-name="Caminho 1" d="M535.98,288.656a.31.31,0,0,0,.131-.434,29.714,29.714,0,0,0-4.313-7.276.93.93,0,0,0-1.656.61c0,9.193-3.4,15.162-9.149,19.478-.043,0-.043.043-.043.087a51.822,51.822,0,0,0,2.262,11.628.112.112,0,0,0,.218-.043,26.193,26.193,0,0,1,12.548-24.049Zm1.83,6.492h0a22.584,22.584,0,0,0-12.94,18.908h-.261a25.1,25.1,0,0,1,11.633-24.311.334.334,0,0,1,.523.174,30.223,30.223,0,0,1,1.22,4.838.265.265,0,0,1-.174.392Zm-17.993,6.666h0c.043-.043.131,0,.174.087a52.127,52.127,0,0,0,2.135,10.8c.043.087-.087.174-.174.131a32.5,32.5,0,0,0-10.412-4.662,1.077,1.077,0,0,1-.174-2.135,61.1,61.1,0,0,0,8.452-4.226Zm17.906,1.133h0a.363.363,0,0,1,.479.392,35.518,35.518,0,0,1-.7,3.747.393.393,0,0,1-.261.261,14.424,14.424,0,0,0-1.83.523,13.447,13.447,0,0,0-8.1,8.321c-.218-.043-.131-.043-.349-.087a16.848,16.848,0,0,1,10.761-13.157Zm-1.22,5.62h0a.365.365,0,0,1,.434.48,30.5,30.5,0,0,1-6.622,11.241.943.943,0,0,1-1.525-.174c-.305-.566-.7-1.133-1.046-1.656h0a12.691,12.691,0,0,1,8.016-9.585,5.313,5.313,0,0,1,.741-.305Zm1.786-11.937h0c.087,1,.174,2.047.174,3.093,0,.566,0,1.133-.043,1.7,0,.131-.131.261-.261.349-.261.087-.523.174-.741.261a17.82,17.82,0,0,0-11.284,13.026.393.393,0,0,1-.218-.043,21.505,21.505,0,0,1,11.894-18.647.319.319,0,0,1,.478.261Z" transform="translate(-510.488 -280.598)" fill="#fff"/>
  <g id="Agrupar_1" data-name="Agrupar 1" transform="translate(32.851 14.898)">
    <path id="Caminho_2" data-name="Caminho 2" d="M642.928,324.734a2.347,2.347,0,0,1,2.4-2.44,2.251,2.251,0,0,1,1.394.48l-3.7,2.657a4.343,4.343,0,0,1-.087-.7Zm-20.738,2.44a2.513,2.513,0,1,1,2.309-2.44,2.255,2.255,0,0,1-2.309,2.44Zm2.527,2.832h2.222a.3.3,0,0,0,.305-.305v-9.976a.3.3,0,0,0-.305-.305h-2.222a.3.3,0,0,0-.305.305v.61a3.886,3.886,0,0,0-2.481-.915,5.224,5.224,0,0,0-5.01,5.315,5.166,5.166,0,0,0,5.01,5.315,3.305,3.305,0,0,0,2.481-.958v.61a.3.3,0,0,0,.305.305Zm-12.852-4.313c.654.087.915.392.915.784a.69.69,0,0,1-.784.7,1.365,1.365,0,0,1-.915-.305.327.327,0,0,0-.392,0l-1.917,1.395a.239.239,0,0,0-.131.218.621.621,0,0,0,.088.261,4.331,4.331,0,0,0,3.226,1.264c2.179,0,3.921-1.395,3.921-3.486s-1.438-3.049-3.311-3.311c-.828-.087-1.089-.305-1.089-.654,0-.305.218-.523.61-.523a1.378,1.378,0,0,1,.741.261.327.327,0,0,0,.392,0l1.569-1.133a.239.239,0,0,0,.131-.218.32.32,0,0,0-.087-.261A3.454,3.454,0,0,0,612,319.374a3.4,3.4,0,0,0-3.355,3.094,3.468,3.468,0,0,0,3.226,3.226Zm-4.752-6.274H604.89a.3.3,0,0,0-.305.305V329.7a.3.3,0,0,0,.305.305h2.222a.3.3,0,0,0,.305-.305v-9.976C607.461,319.549,607.286,319.418,607.112,319.418Zm-1.089-4.618a1.7,1.7,0,1,1-1.7,1.7A1.7,1.7,0,0,1,606.023,314.8Zm-14.77,4.575a4.094,4.094,0,0,0-2,.566.319.319,0,0,1-.479-.261v-4.528a.325.325,0,0,0-.523-.261l-2.222,1.613a.31.31,0,0,0-.131.261v12.983a.3.3,0,0,0,.305.305h2.222a.3.3,0,0,0,.305-.305v-.654a3.486,3.486,0,0,0,2.481.958,5.35,5.35,0,0,0,.043-10.674Zm-.261,7.8a2.278,2.278,0,0,1-2.31-2.44,2.3,2.3,0,0,1,2.31-2.44,2.44,2.44,0,0,1,0,4.879Zm47.794-2.44c0-2.919-1.917-5.315-4.705-5.315a3.664,3.664,0,0,0-2.657.915v-.61a.3.3,0,0,0-.305-.305H628.9a.3.3,0,0,0-.305.305V329.7a.3.3,0,0,0,.305.305h2.222a.3.3,0,0,0,.305-.305v-4.967a2.329,2.329,0,0,1,2.44-2.44,2.151,2.151,0,0,1,2.135,2.44V329.7a.3.3,0,0,0,.305.305h2.179a.3.3,0,0,0,.305-.305v-4.967Zm19.606-3.006v-2a.3.3,0,0,0-.305-.305H656v-2.527a.441.441,0,0,0-.174-.305.341.341,0,0,0-.349.043l-2.222,1.613a.31.31,0,0,0-.131.261v.915H651.9a.3.3,0,0,0-.305.305v2a.3.3,0,0,0,.305.305h1.22v3.572c0,2.527,2,4.313,4.879,4.444a.332.332,0,0,0,.218-.087c.087-.043.087-.131.087-.218v-2.178a.3.3,0,0,0-.305-.305c-1.179-.087-2.047-.61-2.047-1.656V322.12h2.091C658.26,322.032,658.391,321.9,658.391,321.728Zm-55.373-2.309h-.392a3.157,3.157,0,0,0-2.265.915V319.9a.329.329,0,0,0-.174-.305.341.341,0,0,0-.349.043l-2.222,1.613a.31.31,0,0,0-.131.261V329.7a.3.3,0,0,0,.305.305h2.222a.3.3,0,0,0,.305-.305v-4.967c0-1.613.958-2.44,2.047-2.44a2.122,2.122,0,0,1,.523.043.326.326,0,0,0,.392-.305v-2.265a.264.264,0,0,0-.261-.349Zm44.526,6.971a2.6,2.6,0,0,1-2,.784,1.747,1.747,0,0,1-.828-.131l5.49-3.921a.351.351,0,0,0,.131-.392,5.385,5.385,0,0,0-5.01-3.355,5.3,5.3,0,0,0-5.273,5.315,5.414,5.414,0,0,0,5.533,5.315,5.571,5.571,0,0,0,4.27-1.83.467.467,0,0,0,.087-.261.239.239,0,0,0-.131-.218l-1.786-1.35a.391.391,0,0,0-.477.043Z" transform="translate(-585.894 -314.8)" fill="#fff"/>
    <path id="Caminho_3" data-name="Caminho 3" d="M587.655,358.94h-1.438a.206.206,0,0,1-.218-.218v-3.268a.233.233,0,0,1,.218-.218.206.206,0,0,1,.218.218v3.094H587.7c.087,0,.218.087.218.174A.276.276,0,0,1,587.655,358.94Zm70.579,0h-1.35c-.174,0-.305-.043-.305-.261v-3.137a.248.248,0,0,1,.26-.262h1.394a.218.218,0,1,1,0,.434h-1.22v1.22h1.133a.233.233,0,0,1,.218.218.206.206,0,0,1-.218.218h-1.133v1.22h1.264c.087,0,.218.087.218.174a.294.294,0,0,1-.261.174Zm-1.089-4.008h0l-.088.043a.139.139,0,0,1-.131-.131c0-.043.044-.087.088-.174l.392-.349c.043,0,.087-.043.131-.043a.16.16,0,0,1,.131.043l.392.349a.226.226,0,0,1,.087.174.115.115,0,0,1-.131.131c-.043,0-.087,0-.087-.043l-.392-.305Zm-3.747,1.613c0-.784.349-1.307,1.179-1.307.479,0,.915.218.915.434a.186.186,0,0,1-.174.174c-.087,0-.087-.043-.174-.087a1.068,1.068,0,0,0-.523-.174c-.566,0-.784.349-.784.958v1.089c0,.566.174.958.784.958a.76.76,0,0,0,.523-.174c.087-.043.131-.087.174-.087a.186.186,0,0,1,.174.174c0,.261-.434.434-.915.434-.784,0-1.179-.523-1.179-1.307v-1.089Zm-3.355,1.089v-1.089a1.156,1.156,0,0,1,1.178-1.307c.869,0,1.179.61,1.179,1.307v1.089a1.158,1.158,0,0,1-1.179,1.307C650.439,358.984,650.044,358.375,650.044,357.634Zm.392-1.089h0v1.089c0,.523.261.915.784.915s.784-.392.784-.915v-1.089c0-.566-.218-.915-.784-.915S650.436,356.022,650.436,356.545Zm-2.481,1.7.869-2.876a.29.29,0,0,1,.218-.174.206.206,0,0,1,.218.218v.087l-1,3.18q-.065.261-.261.261c-.131,0-.218-.131-.261-.261l-1-3.18v-.087a.206.206,0,0,1,.218-.218.222.222,0,0,1,.218.174l.784,2.876Zm-4.313.7h-1.35c-.174,0-.305-.043-.305-.261v-3.137a.248.248,0,0,1,.261-.261h1.394a.218.218,0,0,1,0,.434h-1.22v1.22h1.133a.233.233,0,0,1,.218.218.206.206,0,0,1-.218.218h-1.133v1.22h1.263c.087,0,.218.087.218.174a.294.294,0,0,1-.261.174Zm-.61-4.705h0c.087-.087.087-.131.174-.131a.186.186,0,0,1,.174.174c0,.043,0,.043-.043.087l-.434.434a.226.226,0,0,1-.174.088.186.186,0,0,1-.174-.174c0-.043,0-.043.043-.087l.434-.392Zm-3.4,1.438h-.7a.206.206,0,0,1-.218-.218.233.233,0,0,1,.218-.218h1.83a.218.218,0,0,1,0,.434h-.741v3.093a.233.233,0,0,1-.218.218.206.206,0,0,1-.218-.218v-3.093Zm-3.485,3.137a.29.29,0,0,1-.218.174.206.206,0,0,1-.218-.218v-.087l1-3.18q.065-.261.261-.261c.174,0,.218.131.261.261l1,3.18v.087a.206.206,0,0,1-.218.218.222.222,0,0,1-.218-.174l-.218-.7h-1.307l-.131.7Zm.349-1.089h1.046l-.523-1.742-.523,1.742Zm-6.1-.087v-1.089a1.156,1.156,0,0,1,1.179-1.307c.868,0,1.179.61,1.179,1.307v1.089a1.185,1.185,0,1,1-2.357,0Zm.434-1.089h0v1.089c0,.523.261.915.784.915s.784-.392.784-.915v-1.089c0-.566-.218-.915-.784-.915S630.832,356.022,630.832,356.545Zm-2.832,2.4h-.566a.281.281,0,0,1-.261-.261v-3.137a.281.281,0,0,1,.261-.261H628a1.216,1.216,0,0,1,1.394,1.307v.958c.043.741-.305,1.394-1.394,1.394Zm1-2.353h0a.826.826,0,0,0-.915-.915h-.527v2.832h.523a.838.838,0,0,0,.915-.958v-.964Zm-3.529,2.265-1.481-2.745v2.657a.218.218,0,0,1-.434,0v-3.311a.206.206,0,0,1,.218-.218.239.239,0,0,1,.218.131l1.481,2.745v-2.657a.218.218,0,1,1,.434,0v3.311a.206.206,0,0,1-.218.218A.239.239,0,0,1,625.473,358.854Zm-4.27.131a1.1,1.1,0,0,1-1.134-1.223v-2.309a.206.206,0,0,1,.218-.218.233.233,0,0,1,.218.218v2.309c0,.479.218.828.741.828a.735.735,0,0,0,.741-.828v-2.309a.218.218,0,1,1,.434,0v2.309a1.246,1.246,0,0,1-1.22,1.22Zm-2.353-.218a.233.233,0,0,1-.218.218.206.206,0,0,1-.218-.218V356.24l-.828,1.786a.248.248,0,0,1-.434,0l-.828-1.787v2.527a.218.218,0,1,1-.434,0v-3.311a.206.206,0,0,1,.218-.218.24.24,0,0,1,.218.131l1,2.179,1-2.179a.239.239,0,0,1,.218-.131.206.206,0,0,1,.218.218v3.311Zm-8.452-1.133v-1.089a1.156,1.156,0,0,1,1.179-1.307c.868,0,1.179.61,1.179,1.307v1.089a1.158,1.158,0,0,1-1.179,1.307C610.793,358.985,610.4,358.375,610.4,357.635Zm.434-1.089h0v1.089c0,.523.261.915.784.915s.784-.392.784-.915v-1.089c0-.566-.218-.915-.784-.915S610.833,356.022,610.833,356.545Zm-5.838,1.089v-1.089a1.156,1.156,0,0,1,1.179-1.307c.868,0,1.179.61,1.179,1.307v1.089a1.158,1.158,0,0,1-1.179,1.307C605.389,358.985,604.994,358.375,604.994,357.635Zm.392-1.089h0v1.089c0,.523.261.915.784.915s.784-.392.784-.915v-1.089c0-.566-.218-.915-.784-.915S605.386,356.022,605.386,356.545Zm-2.791,2.4h-.566a.281.281,0,0,1-.261-.261v-3.137a.281.281,0,0,1,.261-.261h.566a1.216,1.216,0,0,1,1.394,1.307v.958a1.259,1.259,0,0,1-1.394,1.394Zm1-2.353h0a.826.826,0,0,0-.915-.915h-.523v2.832h.523a.837.837,0,0,0,.915-.958v-.964Zm-3.572,2.265-1.481-2.745v2.657a.218.218,0,1,1-.434,0v-3.311a.206.206,0,0,1,.218-.218.239.239,0,0,1,.218.131l1.481,2.745v-2.657a.218.218,0,1,1,.434,0v3.311a.206.206,0,0,1-.218.218A.24.24,0,0,1,600.024,358.854Zm-5.1-.043a.29.29,0,0,1-.218.174.206.206,0,0,1-.218-.218v-.087l1-3.18q.065-.261.261-.261c.174,0,.218.131.261.261l1,3.18v.087a.206.206,0,0,1-.218.218.222.222,0,0,1-.218-.174l-.218-.7h-1.307l-.131.7Zm.349-1.089h1.046l-.523-1.742Zm-2.44.523.868-2.876a.29.29,0,0,1,.218-.174.206.206,0,0,1,.218.218v.087l-1,3.18q-.065.261-.261.261c-.131,0-.218-.131-.261-.261l-1-3.18v-.087a.206.206,0,0,1,.218-.218.222.222,0,0,1,.218.174l.784,2.876Zm-2.308.7h-1.35c-.174,0-.305-.043-.305-.261v-3.137a.248.248,0,0,1,.261-.261h1.394a.218.218,0,1,1,0,.434h-1.22v1.22h1.133a.233.233,0,0,1,.218.218.206.206,0,0,1-.218.218h-1.133v1.22h1.263c.087,0,.218.087.218.174C590.7,358.851,590.618,358.94,590.528,358.94Z" transform="translate(-585.953 -336.98)" fill="#fff"/>
  </g>
</svg>
