<svg xmlns="http://www.w3.org/2000/svg" width="158.09" height="60" viewBox="0 0 158.09 60"><defs><style>.a{fill:#fff;fill-rule:evenodd;}</style></defs><g transform="translate(-510.488 -280.598)"><path class="a" d="M548.726,292.685a.465.465,0,0,0,.2-.651,44.566,44.566,0,0,0-6.469-10.913,1.4,1.4,0,0,0-2.483.915c0,13.789-5.1,22.742-13.724,29.217-.065,0-.065.065-.065.13a77.731,77.731,0,0,0,3.392,17.443.167.167,0,0,0,.327-.065,39.289,39.289,0,0,1,18.822-36.074Zm2.745,9.737h0a33.876,33.876,0,0,0-19.41,28.362h-.392a37.646,37.646,0,0,1,17.449-36.466.5.5,0,0,1,.784.261,45.335,45.335,0,0,1,1.83,7.258.4.4,0,0,1-.261.588Zm-26.99,10h0c.065-.065.2,0,.261.131a78.191,78.191,0,0,0,3.2,16.207c.065.13-.131.261-.261.2a48.758,48.758,0,0,0-15.619-6.992c-2.222-.458-1.9-2.745-.262-3.2a91.658,91.658,0,0,0,12.678-6.339Zm26.86,1.7h0a.544.544,0,0,1,.719.588,53.283,53.283,0,0,1-1.046,5.62.589.589,0,0,1-.392.392,21.635,21.635,0,0,0-2.745.784,20.17,20.17,0,0,0-12.156,12.482c-.327-.065-.2-.065-.523-.13a25.272,25.272,0,0,1,16.142-19.736Zm-1.83,8.43h0a.548.548,0,0,1,.651.719,45.743,45.743,0,0,1-9.934,16.861,1.414,1.414,0,0,1-2.287-.261c-.458-.85-1.046-1.7-1.569-2.483h0A19.036,19.036,0,0,1,548.4,323.009a7.971,7.971,0,0,1,1.111-.458Zm2.68-17.906h0c.131,1.5.261,3.07.261,4.64,0,.85,0,1.7-.065,2.549,0,.2-.2.392-.392.523-.392.13-.784.261-1.111.392a26.73,26.73,0,0,0-16.926,19.54.59.59,0,0,1-.327-.065,32.257,32.257,0,0,1,17.841-27.971.479.479,0,0,1,.717.392Z"/><g transform="translate(559.765 302.945)"><path class="a" d="M671.445,329.7a3.52,3.52,0,0,1,3.594-3.66,3.377,3.377,0,0,1,2.092.719l-5.555,3.986a6.511,6.511,0,0,1-.13-1.046Zm-31.107,3.659A3.769,3.769,0,1,1,643.8,329.7a3.382,3.382,0,0,1-3.464,3.659Zm3.791,4.248h3.333a.447.447,0,0,0,.458-.458V322.185a.447.447,0,0,0-.458-.458h-3.333a.447.447,0,0,0-.458.458v.915a5.83,5.83,0,0,0-3.722-1.372,7.836,7.836,0,0,0-7.515,7.973,7.749,7.749,0,0,0,7.515,7.973,4.958,4.958,0,0,0,3.722-1.438v.915a.447.447,0,0,0,.458.458Zm-19.278-6.469c.981.131,1.372.588,1.372,1.176a1.035,1.035,0,0,1-1.176,1.046,2.048,2.048,0,0,1-1.372-.458.49.49,0,0,0-.588,0l-2.875,2.092a.359.359,0,0,0-.2.327.932.932,0,0,0,.131.392,6.5,6.5,0,0,0,4.838,1.9c3.268,0,5.881-2.092,5.881-5.228s-2.157-4.574-4.967-4.967c-1.241-.13-1.634-.458-1.634-.981,0-.458.327-.784.915-.784a2.067,2.067,0,0,1,1.111.392.49.49,0,0,0,.588,0l2.353-1.7a.359.359,0,0,0,.2-.327.48.48,0,0,0-.131-.392,5.181,5.181,0,0,0-4.248-1.96c-2.287,0-5.032,1.961-5.032,4.64.13,2.614,2.091,4.444,4.838,4.838Zm-7.128-9.411h-3.333a.447.447,0,0,0-.458.458V337.15a.447.447,0,0,0,.458.458h3.333a.447.447,0,0,0,.458-.458V322.185C618.244,321.924,617.983,321.727,617.721,321.727Zm-1.634-6.927a2.549,2.549,0,1,1-2.549,2.549A2.549,2.549,0,0,1,616.088,314.8Zm-22.154,6.862a6.141,6.141,0,0,0-3.006.849.478.478,0,0,1-.719-.392v-6.792a.488.488,0,0,0-.784-.392l-3.333,2.419a.465.465,0,0,0-.2.392v19.475a.447.447,0,0,0,.458.458h3.333a.447.447,0,0,0,.458-.458v-.981a5.23,5.23,0,0,0,3.722,1.438,8.024,8.024,0,0,0,.065-16.011Zm-.392,11.7a3.418,3.418,0,0,1-3.464-3.66,3.455,3.455,0,0,1,3.464-3.659,3.66,3.66,0,0,1,0,7.319Zm71.69-3.66c0-4.379-2.875-7.973-7.057-7.973-1.372,0-3.2.392-3.986,1.372v-.915a.447.447,0,0,0-.458-.458H650.4a.447.447,0,0,0-.458.458V337.15a.447.447,0,0,0,.458.458h3.333a.447.447,0,0,0,.458-.458V329.7a3.494,3.494,0,0,1,3.659-3.66c1.768,0,3.2,1.241,3.2,3.66v7.45a.447.447,0,0,0,.458.458h3.268a.446.446,0,0,0,.458-.458V329.7Zm29.408-4.509v-3.006a.447.447,0,0,0-.458-.458h-3.137v-3.791a.661.661,0,0,0-.261-.458.512.512,0,0,0-.523.065l-3.333,2.419a.465.465,0,0,0-.2.392v1.372H684.9a.447.447,0,0,0-.458.458v3.006a.447.447,0,0,0,.458.458h1.83v5.359c0,3.791,3.006,6.469,7.319,6.666a.5.5,0,0,0,.327-.13c.131-.065.131-.2.131-.327v-3.268a.447.447,0,0,0-.458-.458c-1.768-.131-3.07-.915-3.07-2.483v-5.228h3.136C694.444,325.648,694.64,325.453,694.64,325.191Zm-83.06-3.464h-.588a4.736,4.736,0,0,0-3.4,1.372v-.651a.494.494,0,0,0-.262-.458.512.512,0,0,0-.523.065l-3.333,2.419a.465.465,0,0,0-.2.392v12.282a.447.447,0,0,0,.458.458h3.333a.447.447,0,0,0,.458-.458V329.7c0-2.419,1.438-3.66,3.07-3.66a3.182,3.182,0,0,1,.784.065.488.488,0,0,0,.588-.458v-3.4a.4.4,0,0,0-.392-.523Zm66.789,10.457a3.893,3.893,0,0,1-3.006,1.176,2.62,2.62,0,0,1-1.241-.2l8.235-5.881a.527.527,0,0,0,.2-.588,8.078,8.078,0,0,0-7.515-5.032,7.949,7.949,0,0,0-7.909,7.973,8.121,8.121,0,0,0,8.3,7.973,8.357,8.357,0,0,0,6.4-2.745.7.7,0,0,0,.131-.392.359.359,0,0,0-.2-.327l-2.68-2.026a.586.586,0,0,0-.715.064Z" transform="translate(-585.894 -314.8)"/><path class="a" d="M588.483,361.358h-2.157a.309.309,0,0,1-.327-.327v-4.9a.35.35,0,0,1,.327-.327.309.309,0,0,1,.327.327v4.64h1.9c.13,0,.327.131.327.261A.414.414,0,0,1,588.483,361.358Zm105.869,0h-2.026c-.261,0-.458-.065-.458-.392v-4.705a.372.372,0,0,1,.39-.393h2.092a.327.327,0,1,1,0,.651h-1.83v1.83h1.7a.35.35,0,0,1,.327.327.309.309,0,0,1-.327.327h-1.7v1.83h1.9c.131,0,.327.131.327.261a.441.441,0,0,1-.392.261Zm-1.634-6.013h0l-.131.065a.209.209,0,0,1-.2-.2c0-.065.065-.131.131-.261l.588-.523c.065,0,.13-.065.2-.065a.24.24,0,0,1,.2.065l.588.523a.339.339,0,0,1,.13.261.173.173,0,0,1-.2.2c-.065,0-.13,0-.13-.065l-.588-.458Zm-5.62,2.419c0-1.176.523-1.961,1.768-1.961.719,0,1.372.327,1.372.651a.279.279,0,0,1-.262.261c-.131,0-.131-.065-.261-.131a1.6,1.6,0,0,0-.784-.261c-.849,0-1.176.523-1.176,1.438V359.4c0,.849.261,1.438,1.176,1.438a1.141,1.141,0,0,0,.785-.261c.13-.065.2-.13.261-.13a.279.279,0,0,1,.261.261c0,.392-.651.651-1.372.651-1.176,0-1.768-.784-1.768-1.961V357.76Zm-5.032,1.634v-1.634a1.733,1.733,0,0,1,1.768-1.961c1.3,0,1.768.915,1.768,1.961V359.4a1.737,1.737,0,0,1-1.768,1.96C682.659,361.424,682.067,360.509,682.067,359.4Zm.588-1.634h0V359.4c0,.784.392,1.372,1.176,1.372s1.176-.588,1.176-1.372v-1.634c0-.849-.327-1.372-1.176-1.372S682.655,356.98,682.655,357.765Zm-3.722,2.549,1.3-4.314a.434.434,0,0,1,.327-.261.309.309,0,0,1,.327.327v.131l-1.5,4.771q-.1.392-.392.392c-.2,0-.327-.2-.392-.392l-1.5-4.771v-.131a.309.309,0,0,1,.327-.327.333.333,0,0,1,.327.261l1.176,4.314Zm-6.469,1.046h-2.026c-.261,0-.458-.065-.458-.392v-4.705a.372.372,0,0,1,.392-.392h2.092a.327.327,0,0,1,0,.651h-1.83v1.83h1.7a.35.35,0,0,1,.327.327.309.309,0,0,1-.327.327h-1.7v1.83h1.9c.13,0,.327.131.327.261a.441.441,0,0,1-.392.261Zm-.915-7.057h0c.13-.13.13-.2.261-.2a.279.279,0,0,1,.261.261c0,.065,0,.065-.065.131l-.651.651a.34.34,0,0,1-.261.131.279.279,0,0,1-.261-.262c0-.065,0-.065.065-.131l.651-.588Zm-5.1,2.157h-1.046a.309.309,0,0,1-.327-.327.35.35,0,0,1,.327-.327h2.745a.327.327,0,0,1,0,.651H667.04v4.64a.35.35,0,0,1-.327.327.309.309,0,0,1-.327-.327v-4.64Zm-5.228,4.705a.435.435,0,0,1-.327.261.309.309,0,0,1-.327-.327v-.13l1.5-4.77q.1-.392.392-.392c.261,0,.327.2.392.392l1.5,4.77v.13a.309.309,0,0,1-.327.327.333.333,0,0,1-.327-.261l-.327-1.046h-1.961l-.2,1.046Zm.523-1.634h1.569l-.784-2.614-.784,2.614Zm-9.149-.13v-1.634a1.733,1.733,0,0,1,1.768-1.961c1.3,0,1.768.915,1.768,1.961V359.4a1.777,1.777,0,1,1-3.536,0Zm.651-1.634h0V359.4c0,.784.392,1.372,1.176,1.372s1.176-.588,1.176-1.372v-1.634c0-.85-.327-1.372-1.176-1.372S653.248,356.981,653.248,357.765ZM649,361.36h-.85a.422.422,0,0,1-.392-.392v-4.705a.421.421,0,0,1,.392-.392H649a1.825,1.825,0,0,1,2.092,1.96v1.438c.065,1.111-.458,2.092-2.092,2.092Zm1.5-3.529h0a1.238,1.238,0,0,0-1.372-1.372h-.79v4.248h.784a1.256,1.256,0,0,0,1.372-1.438v-1.446Zm-5.293,3.4-2.222-4.117V361.1a.326.326,0,0,1-.651,0v-4.967a.309.309,0,0,1,.327-.327.359.359,0,0,1,.327.2l2.222,4.117v-3.986a.327.327,0,1,1,.651,0V361.1a.309.309,0,0,1-.327.327A.359.359,0,0,1,645.21,361.229Zm-6.4.2a1.649,1.649,0,0,1-1.7-1.835v-3.463a.309.309,0,0,1,.327-.327.35.35,0,0,1,.327.327v3.463c0,.719.327,1.241,1.111,1.241a1.1,1.1,0,0,0,1.111-1.241v-3.463a.327.327,0,1,1,.651,0v3.463a1.869,1.869,0,0,1-1.83,1.83Zm-3.529-.327a.35.35,0,0,1-.327.327.309.309,0,0,1-.327-.327v-3.791l-1.242,2.68a.372.372,0,0,1-.651,0l-1.241-2.68V361.1a.327.327,0,1,1-.651,0v-4.967a.309.309,0,0,1,.327-.327.359.359,0,0,1,.327.2l1.5,3.268L634.5,356a.359.359,0,0,1,.327-.2.309.309,0,0,1,.327.327V361.1ZM622.6,359.4v-1.634a1.733,1.733,0,0,1,1.768-1.961c1.3,0,1.768.915,1.768,1.961V359.4a1.737,1.737,0,0,1-1.768,1.96C623.19,361.425,622.6,360.51,622.6,359.4Zm.651-1.634h0V359.4c0,.784.392,1.372,1.176,1.372s1.176-.588,1.176-1.372v-1.634c0-.85-.327-1.372-1.176-1.372S623.249,356.981,623.249,357.765Zm-8.758,1.634v-1.634a1.733,1.733,0,0,1,1.768-1.961c1.3,0,1.768.915,1.768,1.961V359.4a1.737,1.737,0,0,1-1.768,1.96C615.083,361.425,614.492,360.51,614.492,359.4Zm.588-1.634h0V359.4c0,.784.392,1.372,1.176,1.372s1.176-.588,1.176-1.372v-1.634c0-.85-.327-1.372-1.176-1.372S615.08,356.981,615.08,357.765Zm-4.187,3.594h-.849a.422.422,0,0,1-.392-.392v-4.705a.421.421,0,0,1,.392-.392h.849a1.825,1.825,0,0,1,2.091,1.96v1.438a1.888,1.888,0,0,1-2.091,2.092Zm1.5-3.529h0a1.238,1.238,0,0,0-1.372-1.372h-.784v4.248h.784a1.256,1.256,0,0,0,1.372-1.438v-1.446Zm-5.359,3.4-2.222-4.117V361.1a.327.327,0,1,1-.651,0v-4.967a.309.309,0,0,1,.327-.327.359.359,0,0,1,.327.2l2.222,4.117v-3.986a.327.327,0,1,1,.651,0V361.1a.309.309,0,0,1-.327.327A.359.359,0,0,1,607.037,361.229Zm-7.647-.065a.435.435,0,0,1-.327.261.309.309,0,0,1-.327-.327v-.13l1.5-4.77q.1-.392.392-.392c.261,0,.327.2.392.392l1.5,4.77v.13a.309.309,0,0,1-.327.327.333.333,0,0,1-.327-.261l-.327-1.046h-1.96l-.2,1.046Zm.523-1.634h1.569l-.784-2.614Zm-3.659.784,1.3-4.314a.435.435,0,0,1,.327-.261.309.309,0,0,1,.327.327v.131l-1.5,4.771q-.1.392-.392.392c-.2,0-.327-.2-.392-.392l-1.5-4.771v-.131a.309.309,0,0,1,.327-.327.333.333,0,0,1,.327.261l1.176,4.314Zm-3.461,1.044h-2.026c-.261,0-.458-.065-.458-.392v-4.705a.372.372,0,0,1,.392-.392h2.092a.327.327,0,1,1,0,.651h-1.83v1.83h1.7a.35.35,0,0,1,.327.327.309.309,0,0,1-.327.327h-1.7v1.83h1.9c.13,0,.327.131.327.261C593.058,361.224,592.927,361.358,592.792,361.358Z" transform="translate(-585.929 -328.418)"/></g></g></svg>